<?xml version="1.0" ?><svg viewBox="0 0 64 64" xmlns="http://www.w3.org/2000/svg"><defs><style>.cls-1{fill:#008cc1;}.cls-2{fill:#65b144;}.cls-3{fill:none;stroke:#231f20;stroke-miterlimit:10;stroke-width:2px;}.cls-4{fill:#231f20;}</style></defs><title/><g data-name="Layer 6" id="Layer_6"><g data-name="gear cycle" id="gear_cycle-2"><path class="cls-1" d="M28,10v4.461a17.872,17.872,0,0,0-5.569,2.313l-3.159-3.159-5.657,5.657,3.159,3.158A17.887,17.887,0,0,0,14.461,28H10v8h4.461a17.872,17.872,0,0,0,2.313,5.569l-3.159,3.159,5.657,5.657,3.159-3.159A17.872,17.872,0,0,0,28,49.539V54h8V49.539a17.872,17.872,0,0,0,5.569-2.313l3.159,3.159,5.657-5.657-3.159-3.159A17.872,17.872,0,0,0,49.539,36H54V28H49.539a17.887,17.887,0,0,0-2.313-5.57l3.159-3.158-5.657-5.657-3.159,3.159A17.872,17.872,0,0,0,36,14.461V10ZM43,32A11,11,0,1,1,32,21,11,11,0,0,1,43,32Z"/><circle class="cls-2" cx="32" cy="32" r="11"/><path class="cls-3" d="M3.456,26.849A29.009,29.009,0,0,1,32,3"/><polygon class="cls-4" points="7.206 26.182 3 32 0.064 25.449 7.206 26.182"/><path class="cls-3" d="M60.544,37.151A29.009,29.009,0,0,1,32,61"/><polygon class="cls-4" points="56.794 37.818 61 32 63.936 38.551 56.794 37.818"/><path class="cls-3" d="M54,36V28H49.539a17.887,17.887,0,0,0-2.313-5.57l3.159-3.158-5.657-5.657-3.159,3.159A17.872,17.872,0,0,0,36,14.461V10H28v4.461a17.872,17.872,0,0,0-5.569,2.313l-3.159-3.159-5.657,5.657,3.159,3.158A17.887,17.887,0,0,0,14.461,28H10v8h4.461a17.872,17.872,0,0,0,2.313,5.569l-3.159,3.159,5.657,5.657,3.159-3.159A17.872,17.872,0,0,0,28,49.539V54h8V49.539a17.872,17.872,0,0,0,5.569-2.313l3.159,3.159,5.657-5.657-3.159-3.159A17.872,17.872,0,0,0,49.539,36Z"/><circle class="cls-3" cx="32" cy="32" r="11"/></g></g></svg>